<svg xmlns="http://www.w3.org/2000/svg" viewBox="0 0 152.67 103.67"><title>betobaccofree</title><g id="Layer_1" data-name="Layer 1"><rect x="1" y="1" width="150.67" height="101.67" style="fill:#fff;stroke:#fff;stroke-miterlimit:10;stroke-width:2px"/></g><g id="Layer_2" data-name="Layer 2"><path d="M107.08,73.51a8.29,8.29,0,0,0,.64-3.17c0-8.68-14.12-15.72-31.54-15.72s-31.54,7-31.54,15.72a8.29,8.29,0,0,0,.63,3.15l5.36,7.29,13.5,5H84.88l16.56-3.69Z" style="fill:#fff"/><path d="M69.8,48v1.55l-4.59,4.75c-12.66,2.3-21.26,8.39-21.85,15.39a9.92,9.92,0,0,1-.59-1,8.42,8.42,0,0,1-1-4C41.75,56.53,53.77,49.48,69.8,48Z" style="fill:#cccacb;stroke:#cccacb;stroke-miterlimit:10;stroke-width:2px"/><path d="M109.66,68.6a9.92,9.92,0,0,1-.59,1c-.69-8.49-13.2-15.39-29.38-16.24A5.2,5.2,0,0,0,80,51.56V47.77c17.26,1,30.61,8.23,30.61,16.78A8.42,8.42,0,0,1,109.66,68.6Z" style="fill:#cccacb;stroke:#cccacb;stroke-miterlimit:10;stroke-width:2px"/><path d="M110.67,73.62c0,9.3-15.44,16.88-34.46,16.88S41.75,82.92,41.75,73.62V71.06l.05.05.48.64.05.05c.16.16.27.37.43.53a.74.74,0,0,1,.16.21,3.05,3.05,0,0,0,.37.43l.16.16.59.59c6.36,6.09,18.7,9.83,32.11,9.83a64.8,64.8,0,0,0,9.78-.69c.8-.11,1.55-.21,2.35-.37s1.39-.27,2.08-.43c.11,0,.21-.05.32-.05,7.37-1.66,13.62-4.54,17.58-8.28a6.1,6.1,0,0,0,.59-.59L109,73a2.68,2.68,0,0,0,.37-.43.74.74,0,0,0,.16-.21,3.74,3.74,0,0,0,.43-.53l.05-.05.48-.64.05-.05v2.56Z" style="fill:#cccacb"/><circle cx="91.71" cy="75.17" r="1.5" style="fill:#010101"/><circle cx="91.71" cy="75.17" r="1.5" style="fill:#756f71"/><circle cx="95.45" cy="68.33" r="0.96" style="fill:#756f71"/><circle cx="87.75" cy="69.3" r="0.59" style="fill:#756f71"/><circle cx="83.96" cy="70.1" r="0.8" style="fill:#756f71"/><circle cx="84.76" cy="74.64" r="0.96" style="fill:#756f71"/><circle cx="80.17" cy="74.59" r="1.55" style="fill:#756f71"/><circle cx="79.74" cy="78.7" r="1.12" style="fill:#756f71"/><circle cx="74.66" cy="78" r="0.69" style="fill:#756f71"/><circle cx="76.33" cy="76.09" r="0.69" style="fill:#756f71"/><circle cx="70.07" cy="76.62" r="1.07" style="fill:#756f71"/><circle cx="72.95" cy="75.13" r="1.07" style="fill:#756f71"/><circle cx="71.65" cy="73.64" r="0.77" style="fill:#756f71"/><circle cx="70.85" cy="71.01" r="0.67" style="fill:#756f71"/><circle cx="65.47" cy="72.02" r="1.02" style="fill:#756f71"/><circle cx="84.76" cy="60.21" r="0.96" style="fill:#756f71"/><ellipse cx="76.17" cy="64.58" rx="35.55" ry="18.04" style="fill:none;stroke:#292526;stroke-miterlimit:10;stroke-width:2.5px"/><path d="M107.08,73.51a8.29,8.29,0,0,0,.64-3.17c0-8.68-14.12-15.72-31.54-15.72s-31.54,7-31.54,15.72a8.29,8.29,0,0,0,.63,3.15" style="fill:none;stroke:#292526;stroke-miterlimit:10;stroke-width:2.5px"/><path d="M40.63,64.58v9.09c0,10,15.92,18,35.55,18s35.55-8.08,35.55-18V64.58" style="fill:none;stroke:#292526;stroke-miterlimit:10;stroke-width:2.5px"/><path d="M72,68.33V72c0,1.69,1.86,3.06,4.15,3.06s4.15-1.37,4.15-3.06V66.13A4.77,4.77,0,0,0,78,62.05l-4.61-2.8" style="fill:#fff"/><path d="M71.65,60.67l6-6a4.77,4.77,0,0,0,1.39-3.37V16.74h-8.3V49.83l-6.28,6.58a4.77,4.77,0,0,0,.86,7.3L74,69.3" style="fill:#fff"/><path d="M70.76,16.74V49.83l-6.28,6.58a4.77,4.77,0,0,0,.86,7.3L74,69.3" style="fill:none;stroke:#292526;stroke-linecap:round;stroke-linejoin:round;stroke-width:2.5px"/><path d="M71.65,60.67l6-6a4.77,4.77,0,0,0,1.39-3.37V16.74" style="fill:none;stroke:#292526;stroke-linecap:round;stroke-miterlimit:10;stroke-width:2.5px"/><line x1="73.42" y1="51.33" x2="70.76" y2="49.83" style="fill:none;stroke:#292526;stroke-linecap:round;stroke-miterlimit:10;stroke-width:2.5px"/><line x1="73.25" y1="62.17" x2="73.25" y2="60.21" style="fill:none;stroke:#292526;stroke-linecap:round;stroke-miterlimit:10;stroke-width:2.5px"/><path d="M70.76,35.17c0,1.69,1.86,3.06,4.15,3.06s4.15-1.37,4.15-3.06V16.74c0,1.69-1.86,3.06-4.15,3.06s-4.15-1.37-4.15-3.06Z" style="fill:#756f71;stroke:#292526;stroke-miterlimit:10;stroke-width:2.5px"/><path d="M72,68.33V72c0,1.69,1.86,3.06,4.15,3.06s4.15-1.37,4.15-3.06V66.13A4.77,4.77,0,0,0,78,62.05l-4.61-2.8" style="fill:none;stroke:#292526;stroke-miterlimit:10;stroke-width:2.5px"/><ellipse cx="74.9" cy="16.74" rx="4.15" ry="3.06" style="fill:#756f71;stroke:#292526;stroke-miterlimit:10;stroke-width:2.5px"/></g></svg>