<svg xmlns="http://www.w3.org/2000/svg" viewBox="0 0 152.67 103.67"><title>jointhefight</title><g id="Layer_1" data-name="Layer 1"><rect x="1" y="1" width="150.67" height="101.67" style="fill:#fff;stroke:#fff;stroke-miterlimit:10;stroke-width:2px"/></g><g id="Layer_2" data-name="Layer 2"><path d="M60.39,71.83H62a.68.68,0,0,0,.7-.7v-5.7a.68.68,0,0,0-.7-.7h-2.9" style="fill:#fff;stroke:#292526;stroke-linecap:round;stroke-linejoin:round;stroke-width:2.5px"/><path d="M51.58,82.13a.88.88,0,0,0,.9.7h9.2a1.75,1.75,0,0,0,1.7-1.7h0a1.75,1.75,0,0,0-1.7-1.7.82.82,0,0,1-.9-.8l-1.4-7.8-1.3-7.2-.9-5.3h-9.7Z" style="fill:#756f71;stroke:#292526;stroke-linecap:round;stroke-linejoin:round;stroke-width:2.5px"/><path d="M31.78,41.13a1.54,1.54,0,0,0-1.5,1.5v8.5a1.54,1.54,0,0,0,1.5,1.5H34V41.13Z" style="fill:#fff;stroke:#292526;stroke-linecap:round;stroke-linejoin:round;stroke-width:2.5px"/><path d="M35.48,38.83a1.54,1.54,0,0,0-1.5,1.5v13.2a1.54,1.54,0,0,0,1.5,1.5h4V38.83Z" style="fill:#fff;stroke:#292526;stroke-linecap:round;stroke-linejoin:round;stroke-width:2.5px"/><polygon points="43.78 35.43 39.48 36.83 39.48 38.83 39.48 54.93 39.48 56.83 43.78 58.33 47.38 58.33 57.19 58.33 60.59 58.33 60.59 35.43 43.78 35.43" style="fill:#cccacb;stroke:#292526;stroke-linecap:round;stroke-linejoin:round;stroke-width:2.5px"/><polygon points="60.59 35.43 60.59 58.33 81.69 70.43 81.69 23.33 60.59 35.43" style="fill:#cccacb;stroke:#292526;stroke-linecap:round;stroke-linejoin:round;stroke-width:2.5px"/><path d="M84.08,20.83a2.43,2.43,0,0,0-2.4,2.4v47.3a2.4,2.4,0,0,0,4.8,0V23.23A2.43,2.43,0,0,0,84.08,20.83Z" style="fill:#fff;stroke:#292526;stroke-linecap:round;stroke-linejoin:round;stroke-width:2.5px"/><line x1="93.05" y1="46.88" x2="122.38" y2="46.88" style="fill:none;stroke:#292526;stroke-linecap:round;stroke-linejoin:round;stroke-width:2.5px"/><line x1="93.89" y1="35.77" x2="121.54" y2="25.97" style="fill:none;stroke:#292526;stroke-linecap:round;stroke-linejoin:round;stroke-width:2.5px"/><line x1="121.54" y1="67.79" x2="93.89" y2="57.99" style="fill:none;stroke:#292526;stroke-linecap:round;stroke-linejoin:round;stroke-width:2.5px"/></g></svg>