<svg xmlns="http://www.w3.org/2000/svg" viewBox="5861 624.232 27.421 27.535">
  <defs>
    <style>
      .media-svg {
        fill: #746f71;
      }
    </style>
  </defs>
  <g id="Group_2435" data-name="Group 2435" transform="translate(5861 624.232)">
    <path id="Path_4845" data-name="Path 4845" class="media-svg" d="M25.136,21.137a.571.571,0,1,1-1.143,0V5.941a2.573,2.573,0,0,0-1.828-2.4H6.855V2.285H25.136ZM16,23.993H12.568a1.143,1.143,0,1,1,0-2.285H16a1.143,1.143,0,1,1,0,2.285ZM4.57,13.711A5.657,5.657,0,0,1,10.283,8a5.713,5.713,0,1,1,0,11.425A5.657,5.657,0,0,1,4.57,13.711ZM8,23.993H4.57a1.143,1.143,0,1,1,0-2.285H8a1.143,1.143,0,1,1,0,2.285ZM26.279,0H5.713A1.079,1.079,0,0,0,4.57,1.143V3.428H2.057A2.048,2.048,0,0,0,0,5.484V25.479a2.048,2.048,0,0,0,2.057,2.057H18.738a1.86,1.86,0,0,0,1.942-1.942V6.855a1.215,1.215,0,0,1,1.028-1.143V21.137a2.856,2.856,0,1,0,5.713,0V1.143A1.079,1.079,0,0,0,26.279,0Z"/>
    <path id="Path_4846" data-name="Path 4846" class="media-svg" d="M9.428,9a3.428,3.428,0,0,0,0,6.855A3.428,3.428,0,0,0,9.428,9" transform="translate(0.855 1.283)"/>
  </g>
</svg>
