<svg xmlns="http://www.w3.org/2000/svg" viewBox="468 3999 179.679 50.884">
  <defs>
    <style>
      .cls-1 {
        fill: #746f71;
      }
    </style>
  </defs>
  <g id="Group_8689" data-name="Group 8689" transform="translate(468 3999)">
    <g id="Group_8688" data-name="Group 8688">
      <rect id="Rectangle_4206" data-name="Rectangle 4206" class="cls-1" width="0.899" height="32" transform="translate(66.699 18.777)"/>
      <rect id="Rectangle_4207" data-name="Rectangle 4207" class="cls-1" width="0.899" height="31.842" transform="translate(17.878 18.777)"/>
      <path id="Path_18692" data-name="Path 18692" class="cls-1" d="M10.2,48.6a4.964,4.964,0,0,0,3.544-2.7h3.544V65.365H13.162V51.031c-.476.264-.952.529-1.481.793a6.583,6.583,0,0,1-1.481.582V48.6Z" transform="translate(-4.805 -21.622)"/>
      <path id="Path_18693" data-name="Path 18693" class="cls-1" d="M50.571,53.5a1.515,1.515,0,0,0,1.111-.423,1.709,1.709,0,0,0,.37-1.164V50.7a3.357,3.357,0,0,0-.264-1.481,1.279,1.279,0,0,0-1.269-.635,1.309,1.309,0,0,0-1.322.688,3.734,3.734,0,0,0-.264,1.587v.9a2.213,2.213,0,0,0,.317,1.322,1.979,1.979,0,0,0,1.322.423m-.159,8.833a1.378,1.378,0,0,0,1.375-.793,4.206,4.206,0,0,0,.264-1.64V58.523a3.623,3.623,0,0,0-.212-1.534,1.266,1.266,0,0,0-1.269-.741,1.443,1.443,0,0,0-1.322.582,2.9,2.9,0,0,0-.37,1.64V59.9a5.749,5.749,0,0,0,.159,1.64,1.378,1.378,0,0,0,1.375.793m-5.448-12.06A4.613,4.613,0,0,1,46.5,46.411,6.405,6.405,0,0,1,50.624,45.3a6.187,6.187,0,0,1,4.284,1.217c.846.793,1.269,2.222,1.269,4.231a5.662,5.662,0,0,1-.317,2.38,7.268,7.268,0,0,1-1.9,1.64,2.834,2.834,0,0,1,2.01,1.481,6.427,6.427,0,0,1,.37,2.539V60.48A4.5,4.5,0,0,1,54.8,64.289a6.418,6.418,0,0,1-4.126,1.058c-2.433,0-4.073-.529-4.866-1.534-.741-.9-1.111-2.592-1.111-5.025a6.1,6.1,0,0,1,.37-2.539,3.146,3.146,0,0,1,1.9-1.64,3.183,3.183,0,0,1-1.851-1.745,18.76,18.76,0,0,1-.159-2.592" transform="translate(-21.057 -21.339)"/>
      <path id="Path_18694" data-name="Path 18694" class="cls-1" d="M73.6,60.539c0,1.058.476,1.64,1.481,1.64a1.366,1.366,0,0,0,1.111-.476,1.743,1.743,0,0,0,.423-1.164V50.489a1.848,1.848,0,0,0-.423-1.164A1.235,1.235,0,0,0,75.13,48.8a1.66,1.66,0,0,0-1.111.37,1.228,1.228,0,0,0-.476,1V60.539Zm-4.5-10.1a4.858,4.858,0,0,1,1.693-4.02A6.877,6.877,0,0,1,75.077,45.2a7.17,7.17,0,0,1,4.231,1.111,4.5,4.5,0,0,1,1.745,3.861v9.309c0,2.222-.529,3.808-1.587,4.655-.952.793-2.592,1.164-4.866,1.164a6.305,6.305,0,0,1-3.861-1.111,4.159,4.159,0,0,1-1.64-3.544Z" transform="translate(-32.551 -21.292)"/>
      <path id="Path_18695" data-name="Path 18695" class="cls-1" d="M98.643,60.539c0,1.058.476,1.64,1.481,1.64a1.366,1.366,0,0,0,1.111-.476,1.743,1.743,0,0,0,.423-1.164V50.489a1.848,1.848,0,0,0-.423-1.164,1.235,1.235,0,0,0-1.058-.529,1.66,1.66,0,0,0-1.111.37,1.228,1.228,0,0,0-.476,1V60.539ZM94.2,50.436a4.858,4.858,0,0,1,1.693-4.02,6.877,6.877,0,0,1,4.284-1.217,7.17,7.17,0,0,1,4.231,1.111,4.5,4.5,0,0,1,1.745,3.861v9.309c0,2.222-.529,3.808-1.587,4.655-.952.793-2.592,1.164-4.866,1.164a6.305,6.305,0,0,1-3.861-1.111,4.159,4.159,0,0,1-1.64-3.544Z" transform="translate(-44.374 -21.292)"/>
      <path id="Path_18696" data-name="Path 18696" class="cls-1" d="M143.441,62.014a1.911,1.911,0,0,0,1.269-.37,1.4,1.4,0,0,0,.476-1.164v-10.1a2.191,2.191,0,0,0-.317-1.217,1.1,1.1,0,0,0-1-.476h-.37c-1.111,0-1.64.582-1.64,1.745V60a2.8,2.8,0,0,0,.317,1.481,1.325,1.325,0,0,0,1.269.529M137.2,50.96a5.6,5.6,0,0,1,1.534-4.231,6.178,6.178,0,0,1,4.39-1.428c2.486,0,4.231.476,5.289,1.481,1,1,1.534,2.75,1.534,5.236v7.564a5.883,5.883,0,0,1-1.058,3.755,6.176,6.176,0,0,1-3.438,1.957v.37a1.768,1.768,0,0,0,.317,1.217,1.468,1.468,0,0,0,1.164.37h1.64v2.962h-3.808c-1.375,0-2.327-.317-2.75-1a5.189,5.189,0,0,1-.476-2.645V65.294a4.916,4.916,0,0,1-3.226-1.9,6.033,6.033,0,0,1-1.111-3.7Z" transform="translate(-64.63 -21.339)"/>
      <path id="Path_18697" data-name="Path 18697" class="cls-1" d="M164.2,46h4.708l-.053,14.651a1.8,1.8,0,0,0,.37,1.164,1.175,1.175,0,0,0,1.058.529,1.707,1.707,0,0,0,1.111-.423,1.332,1.332,0,0,0,.476-1.058V46h4.655V60.493c0,2.116-.582,3.544-1.8,4.337a8.919,8.919,0,0,1-4.76.952,6.609,6.609,0,0,1-4.126-1.111,4.692,4.692,0,0,1-1.64-3.914Z" transform="translate(-77.349 -21.669)"/>
      <rect id="Rectangle_4208" data-name="Rectangle 4208" class="cls-1" width="4.76" height="19.465" transform="translate(101.026 24.278)"/>
      <path id="Path_18698" data-name="Path 18698" class="cls-1" d="M201.9,45.9h12.483v3.385h-3.861v16.08h-4.76V49.285H201.9Z" transform="translate(-95.108 -21.622)"/>
      <path id="Path_18699" data-name="Path 18699" class="cls-1" d="M234.7,45.853l4.76-.053,4.126,12.8V45.853h3.967V65.371h-4.708l-4.179-12.853V65.371H234.7Z" transform="translate(-110.559 -21.575)"/>
      <path id="Path_18700" data-name="Path 18700" class="cls-1" d="M269.94,51.071a5.879,5.879,0,0,0-.159-1.745,1.488,1.488,0,0,0-1.481-.741,1.526,1.526,0,0,0-1.428.582,3.459,3.459,0,0,0-.264,1.534v9.1a3.357,3.357,0,0,0,.264,1.481,1.453,1.453,0,0,0,1.322.688c.793,0,1.322-.212,1.534-.688a4.489,4.489,0,0,0,.212-1.745Zm-8.04-.212a5.3,5.3,0,0,1,1.745-4.39A7.289,7.289,0,0,1,268.3,45.2c2.486,0,4.179.582,5.131,1.8.846,1.058,1.217,2.856,1.217,5.4v5.871c0,2.539-.423,4.337-1.269,5.342-.952,1.111-2.7,1.693-5.184,1.693-2.274,0-3.861-.529-4.813-1.534s-1.428-2.645-1.428-4.972V50.86Z" transform="translate(-123.372 -21.292)"/>
      <path id="Path_18701" data-name="Path 18701" class="cls-1" d="M291.043,45.753l1.428,15.128h.212l2.327-15.128h5.4l2.7,15.128h.159c.264-2.222.476-4.02.582-5.289s.264-2.856.37-4.76.159-3.6.159-5.131h4.5l-2.38,19.623-6.083-.106c-.212-1.269-.423-2.539-.688-3.861-.211-1.322-.423-2.539-.635-3.755-.317-1.851-.529-3.174-.688-4.02a16.012,16.012,0,0,0-.317-1.851c-.053-.423-.212-1-.37-1.8l-2.592,15.286h-6.083L286.6,45.7h4.443Z" transform="translate(-135.008 -21.528)"/>
      <path id="Path_18702" data-name="Path 18702" class="cls-1" d="M.9,42.42V8.463A7.562,7.562,0,0,1,8.463.9H171.216a7.562,7.562,0,0,1,7.564,7.564V42.42a7.562,7.562,0,0,1-7.564,7.564H8.463A7.562,7.562,0,0,1,.9,42.42M8.463,0A8.488,8.488,0,0,0,0,8.463V42.42a8.488,8.488,0,0,0,8.463,8.463H171.216a8.488,8.488,0,0,0,8.463-8.463V8.463A8.488,8.488,0,0,0,171.216,0Z"/>
      <rect id="Rectangle_4209" data-name="Rectangle 4209" class="cls-1" width="178.621" height="0.899" transform="translate(0.476 18.142)"/>
      <path id="Path_18703" data-name="Path 18703" class="cls-1" d="M14.172,17.952a4.04,4.04,0,0,0,2.539-.793,2.974,2.974,0,0,0,1.058-2.38,2.932,2.932,0,0,0-1.111-2.486,4.3,4.3,0,0,0-2.7-.793,3.839,3.839,0,0,0-2.539.793,2.974,2.974,0,0,0-1.058,2.38,2.742,2.742,0,0,0,1.164,2.433,3.554,3.554,0,0,0,2.645.846M13.96,10.6A5.546,5.546,0,0,1,17.4,11.658a3.956,3.956,0,0,1,1.428,3.226A3.453,3.453,0,0,1,17.4,17.846a5.156,5.156,0,0,1-3.279,1,5.639,5.639,0,0,1-3.438-.952A3.685,3.685,0,0,1,9.2,14.726,3.818,3.818,0,0,1,10.628,11.6a5.657,5.657,0,0,1,3.332-1" transform="translate(-4.334 -4.993)"/>
      <path id="Path_18704" data-name="Path 18704" class="cls-1" d="M29.6,11h1.111v5.236l3.491-2.8h1.587L33.038,15.6l3.6,3.332H35.1c-.952-.9-1.9-1.8-2.856-2.645l-1.534,1.164v1.481H29.6V11Z" transform="translate(-13.944 -5.182)"/>
      <rect id="Rectangle_4210" data-name="Rectangle 4210" class="cls-1" width="1.058" height="7.881" transform="translate(23.273 5.871)"/>
      <path id="Path_18705" data-name="Path 18705" class="cls-1" d="M50.556,18.268a3.217,3.217,0,0,0-1.164.159.843.843,0,0,0-.635.846.907.907,0,0,0,.582.846,3.458,3.458,0,0,0,1.111.212,2.79,2.79,0,0,0,1.693-.476,1.746,1.746,0,0,0,.741-1.534Zm2.327-.793v-.106a1.192,1.192,0,0,0-.529-1.164,2.72,2.72,0,0,0-1.322-.212,6.736,6.736,0,0,0-1.164.106,1.754,1.754,0,0,0-.846.582l-1-.106a1.536,1.536,0,0,1,1.164-1.164,5.219,5.219,0,0,1,1.745-.212h.423a3.657,3.657,0,0,1,1.745.317A1.572,1.572,0,0,1,53.941,17v2.539a.561.561,0,0,0,.635.635h.37v.688c-.212,0-.37.053-.529.053h-.529A.9.9,0,0,1,53.2,20.7a1.2,1.2,0,0,1-.317-.688,2.31,2.31,0,0,1-1.217.846,5.95,5.95,0,0,1-1.534.212,2.9,2.9,0,0,1-1.693-.476,1.656,1.656,0,0,1-.741-1.481,1.327,1.327,0,0,1,.793-1.269,2.87,2.87,0,0,1,1.534-.37Z" transform="translate(-22.47 -7.16)"/>
      <path id="Path_18706" data-name="Path 18706" class="cls-1" d="M62.4,11h1.111v3.015a4.793,4.793,0,0,1,1.164-.582A5.649,5.649,0,0,1,66,13.274a3.355,3.355,0,0,1,2.01.582,2.291,2.291,0,0,1,.846,1.851v3.174H67.8V15.813a1.468,1.468,0,0,0-.582-1.269,2.128,2.128,0,0,0-1.375-.37,3.086,3.086,0,0,0-1.375.317,1.967,1.967,0,0,0-.952.9v3.544H62.453V11Z" transform="translate(-29.395 -5.182)"/>
      <path id="Path_18707" data-name="Path 18707" class="cls-1" d="M77.458,18.521A1.4,1.4,0,0,0,78.3,19.79a2.925,2.925,0,0,0,1.587.476,3.076,3.076,0,0,0,1.746-.476,1.642,1.642,0,0,0,.846-1.481,1.821,1.821,0,0,0-.793-1.587,3.076,3.076,0,0,0-1.745-.476,2.717,2.717,0,0,0-1.8.582,2.018,2.018,0,0,0-.688,1.693M79.944,15.4a3.9,3.9,0,0,1,2.433.688,2.574,2.574,0,0,1,1.111,2.222,2.574,2.574,0,0,1-1.111,2.222,4.006,4.006,0,0,1-2.433.688,4.263,4.263,0,0,1-2.433-.635A2.482,2.482,0,0,1,76.4,18.415a2.639,2.639,0,0,1,1.111-2.222,3.555,3.555,0,0,1,2.433-.793" transform="translate(-35.989 -7.254)"/>
      <path id="Path_18708" data-name="Path 18708" class="cls-1" d="M91.453,15.459h1.111V16.2a5.8,5.8,0,0,1,1.217-.688,5.01,5.01,0,0,1,1.375-.212,3.138,3.138,0,0,1,1.217.264,1.945,1.945,0,0,1,.952.741,3.1,3.1,0,0,1,1.164-.741,4.054,4.054,0,0,1,1.428-.212,3.282,3.282,0,0,1,1.957.529,2.064,2.064,0,0,1,.9,1.745V20.96h-1.058V17.839a1.434,1.434,0,0,0-.582-1.217,2.5,2.5,0,0,0-1.375-.37,2.76,2.76,0,0,0-1.534.423,1.636,1.636,0,0,0-.635,1.375v2.8H96.531V17.945c0-1.164-.582-1.745-1.8-1.745a2.947,2.947,0,0,0-1.587.423,1.582,1.582,0,0,0-.688,1.428v2.8H91.4v-5.4Z" transform="translate(-43.055 -7.207)"/>
      <path id="Path_18709" data-name="Path 18709" class="cls-1" d="M117.5,18.268a3.217,3.217,0,0,0-1.164.159.843.843,0,0,0-.635.846.907.907,0,0,0,.582.846,3.458,3.458,0,0,0,1.111.212,2.79,2.79,0,0,0,1.693-.476,1.746,1.746,0,0,0,.741-1.534Zm2.38-.793v-.106a1.192,1.192,0,0,0-.529-1.164,2.72,2.72,0,0,0-1.322-.212,6.735,6.735,0,0,0-1.164.106,1.754,1.754,0,0,0-.846.582l-1-.106a1.536,1.536,0,0,1,1.164-1.164,5.219,5.219,0,0,1,1.745-.212h.37a3.657,3.657,0,0,1,1.745.317A1.572,1.572,0,0,1,120.889,17v2.539a.561.561,0,0,0,.635.635h.37v.688a1.464,1.464,0,0,1-.476.053h-.529a.9.9,0,0,1-.688-.212,1.2,1.2,0,0,1-.317-.688,2.31,2.31,0,0,1-1.217.846,5.95,5.95,0,0,1-1.534.212,2.9,2.9,0,0,1-1.693-.476,1.656,1.656,0,0,1-.741-1.481,1.327,1.327,0,0,1,.793-1.269,2.87,2.87,0,0,1,1.534-.37Z" transform="translate(-54.031 -7.16)"/>
      <path id="Path_18710" data-name="Path 18710" class="cls-1" d="M135.7,11.1h7.564V12h-3.227v6.982h-1.111V12H135.7Z" transform="translate(-63.924 -5.229)"/>
      <path id="Path_18711" data-name="Path 18711" class="cls-1" d="M149.358,18.521a1.4,1.4,0,0,0,.846,1.269,2.925,2.925,0,0,0,1.587.476,3.076,3.076,0,0,0,1.745-.476,1.642,1.642,0,0,0,.846-1.481,1.821,1.821,0,0,0-.793-1.587,3.076,3.076,0,0,0-1.745-.476,2.717,2.717,0,0,0-1.8.582,2.018,2.018,0,0,0-.688,1.693m2.486-3.121a3.9,3.9,0,0,1,2.433.688,2.574,2.574,0,0,1,1.111,2.222,2.574,2.574,0,0,1-1.111,2.222,4.006,4.006,0,0,1-2.433.688,4.263,4.263,0,0,1-2.433-.635,2.482,2.482,0,0,1-1.111-2.169,2.639,2.639,0,0,1,1.111-2.222,3.555,3.555,0,0,1,2.433-.793" transform="translate(-69.859 -7.254)"/>
      <path id="Path_18712" data-name="Path 18712" class="cls-1" d="M167.038,18.146a2.57,2.57,0,0,0,1.587-.476,1.738,1.738,0,0,0,.688-1.481,1.88,1.88,0,0,0-.74-1.534,2.806,2.806,0,0,0-3.279,0,1.837,1.837,0,0,0-.688,1.534,1.811,1.811,0,0,0,.741,1.534,3.342,3.342,0,0,0,1.693.423M163.653,10.9h1.058v3.068a4.771,4.771,0,0,1,1.164-.582,4.24,4.24,0,0,1,1.217-.159,3.606,3.606,0,0,1,2.327.741,2.589,2.589,0,0,1,1,2.169,2.589,2.589,0,0,1-1,2.169,3.685,3.685,0,0,1-2.327.688,3.844,3.844,0,0,1-1.322-.212,2.8,2.8,0,0,1-1.111-.582v.582H163.6V10.9Z" transform="translate(-77.066 -5.135)"/>
      <path id="Path_18713" data-name="Path 18713" class="cls-1" d="M180.4,18.268a3.217,3.217,0,0,0-1.164.159.843.843,0,0,0-.635.846.907.907,0,0,0,.582.846,3.458,3.458,0,0,0,1.111.212,2.79,2.79,0,0,0,1.693-.476,1.746,1.746,0,0,0,.74-1.534Zm2.38-.793v-.106a1.192,1.192,0,0,0-.529-1.164,2.72,2.72,0,0,0-1.322-.212,6.736,6.736,0,0,0-1.164.106,1.754,1.754,0,0,0-.846.582l-1-.106a1.536,1.536,0,0,1,1.164-1.164,5.219,5.219,0,0,1,1.745-.212h.37a3.657,3.657,0,0,1,1.745.317A1.572,1.572,0,0,1,183.789,17v2.539a.561.561,0,0,0,.635.635h.37v.688a1.464,1.464,0,0,1-.476.053h-.529a.9.9,0,0,1-.688-.212,1.2,1.2,0,0,1-.317-.688,2.311,2.311,0,0,1-1.217.846,5.95,5.95,0,0,1-1.534.212,2.9,2.9,0,0,1-1.693-.476,1.656,1.656,0,0,1-.74-1.481,1.327,1.327,0,0,1,.793-1.269,2.87,2.87,0,0,1,1.534-.37Z" transform="translate(-83.661 -7.16)"/>
      <path id="Path_18714" data-name="Path 18714" class="cls-1" d="M197.224,17.21a2.978,2.978,0,0,0-.952-.9,3.084,3.084,0,0,0-1.322-.264,2.69,2.69,0,0,0-1.693.529,1.885,1.885,0,0,0-.793,1.587,1.955,1.955,0,0,0,.74,1.534,2.542,2.542,0,0,0,1.64.529,3.148,3.148,0,0,0,1.322-.212,2.977,2.977,0,0,0,1.058-.846l1.058.264a3.862,3.862,0,0,1-1.428,1.269,5.148,5.148,0,0,1-2.01.317,4.065,4.065,0,0,1-2.486-.688,2.7,2.7,0,0,1-1.058-2.274,2.414,2.414,0,0,1,1.164-2.169A4.006,4.006,0,0,1,194.9,15.2a4.533,4.533,0,0,1,1.9.37,2.42,2.42,0,0,1,1.375,1.322Z" transform="translate(-90.115 -7.16)"/>
      <path id="Path_18715" data-name="Path 18715" class="cls-1" d="M211.271,17.21a2.978,2.978,0,0,0-.952-.9A3.084,3.084,0,0,0,209,16.046a2.69,2.69,0,0,0-1.693.529,1.885,1.885,0,0,0-.793,1.587,1.955,1.955,0,0,0,.741,1.534,2.591,2.591,0,0,0,1.693.529,3.147,3.147,0,0,0,1.322-.212,2.587,2.587,0,0,0,1.058-.846l1.058.264a3.862,3.862,0,0,1-1.428,1.269,5.148,5.148,0,0,1-2.01.317,4.065,4.065,0,0,1-2.486-.688,2.7,2.7,0,0,1-1.058-2.274,2.414,2.414,0,0,1,1.164-2.169A4.006,4.006,0,0,1,209,15.2a4.534,4.534,0,0,1,1.9.37,2.42,2.42,0,0,1,1.375,1.322Z" transform="translate(-96.757 -7.16)"/>
      <path id="Path_18716" data-name="Path 18716" class="cls-1" d="M220.358,18.521a1.4,1.4,0,0,0,.846,1.269,2.925,2.925,0,0,0,1.587.476,3.076,3.076,0,0,0,1.745-.476,1.642,1.642,0,0,0,.846-1.481,1.821,1.821,0,0,0-.793-1.587,3.076,3.076,0,0,0-1.745-.476,2.717,2.717,0,0,0-1.8.582,2.018,2.018,0,0,0-.688,1.693m2.486-3.121a3.9,3.9,0,0,1,2.433.688,2.574,2.574,0,0,1,1.111,2.222,2.574,2.574,0,0,1-1.111,2.222,4.006,4.006,0,0,1-2.433.688,4.263,4.263,0,0,1-2.433-.635,2.482,2.482,0,0,1-1.111-2.169,2.639,2.639,0,0,1,1.111-2.222,3.555,3.555,0,0,1,2.433-.793" transform="translate(-103.305 -7.254)"/>
      <path id="Path_18717" data-name="Path 18717" class="cls-1" d="M242.3,11h1.111v3.174h6.136V11.053h1.111v7.881h-1.164V15.179h-6.083v3.7H242.3Z" transform="translate(-114.139 -5.182)"/>
      <path id="Path_18718" data-name="Path 18718" class="cls-1" d="M265.707,17.622a2.158,2.158,0,0,0-.793-1.111,2.331,2.331,0,0,0-1.375-.37,2.443,2.443,0,0,0-1.375.37,2.247,2.247,0,0,0-.846,1.111Zm-4.443.741A1.854,1.854,0,0,0,262,19.843a3.006,3.006,0,0,0,2.856.212,2.426,2.426,0,0,0,.9-.9l.952.264a2.679,2.679,0,0,1-1.322,1.322,4.215,4.215,0,0,1-1.9.423,3.868,3.868,0,0,1-2.38-.741,2.622,2.622,0,0,1-1-2.222,2.427,2.427,0,0,1,1-2.116,3.685,3.685,0,0,1,2.327-.688,3.5,3.5,0,0,1,2.38.793,2.881,2.881,0,0,1,.952,2.222h-5.5Z" transform="translate(-122.524 -7.254)"/>
      <rect id="Rectangle_4211" data-name="Rectangle 4211" class="cls-1" width="1.058" height="7.881" transform="translate(145.457 5.871)"/>
      <path id="Path_18719" data-name="Path 18719" class="cls-1" d="M282.785,20.266a2.356,2.356,0,0,0,1.64-.529,2.029,2.029,0,0,0,.688-1.587,1.706,1.706,0,0,0-.688-1.428,2.57,2.57,0,0,0-1.587-.476,2.625,2.625,0,0,0-1.64.476,1.772,1.772,0,0,0-.688,1.534,1.837,1.837,0,0,0,.688,1.534,2.277,2.277,0,0,0,1.587.476m-3.385-4.76h1.111v.582a2.459,2.459,0,0,1,1.058-.476,5.349,5.349,0,0,1,1.217-.212,3.844,3.844,0,0,1,2.38.688,2.455,2.455,0,0,1,1.111,2.116,2.7,2.7,0,0,1-.952,2.169,3.455,3.455,0,0,1-2.274.741,4.258,4.258,0,0,1-2.539-.793v2.8h-1.058V15.506Z" transform="translate(-131.616 -7.254)"/>
      <rect id="Rectangle_4212" data-name="Rectangle 4212" class="cls-1" width="1.058" height="7.881" transform="translate(155.771 5.871)"/>
      <path id="Path_18720" data-name="Path 18720" class="cls-1" d="M299.2,19.358h1.058v-5.5H299.2Zm0-6.4h1.058V11.9H299.2Z" transform="translate(-140.943 -5.606)"/>
      <path id="Path_18721" data-name="Path 18721" class="cls-1" d="M303.653,15.459h1.058v.635a5.259,5.259,0,0,1,1.164-.635,4.127,4.127,0,0,1,1.269-.159,3.282,3.282,0,0,1,1.957.529,2.064,2.064,0,0,1,.9,1.745V20.96h-1.058V18a1.651,1.651,0,0,0-.529-1.375,2.521,2.521,0,0,0-1.534-.423,2.467,2.467,0,0,0-1.587.476,1.845,1.845,0,0,0-.635,1.481v2.75H303.6V15.459Z" transform="translate(-143.016 -7.207)"/>
      <path id="Path_18722" data-name="Path 18722" class="cls-1" d="M323.154,17.622a2.159,2.159,0,0,0-.793-1.111,2.331,2.331,0,0,0-1.375-.37,2.442,2.442,0,0,0-1.375.37,2.247,2.247,0,0,0-.846,1.111Zm-4.443.741a1.854,1.854,0,0,0,.741,1.481,3.006,3.006,0,0,0,2.856.212,2.426,2.426,0,0,0,.9-.9l.952.264a2.679,2.679,0,0,1-1.322,1.322,4.15,4.15,0,0,1-1.851.423,3.869,3.869,0,0,1-2.38-.741,2.623,2.623,0,0,1-1-2.222,2.427,2.427,0,0,1,1-2.116,3.686,3.686,0,0,1,2.327-.688,3.5,3.5,0,0,1,2.38.793,2.881,2.881,0,0,1,.952,2.222h-5.554Z" transform="translate(-149.611 -7.254)"/>
    </g>
  </g>
</svg>
