<svg xmlns="http://www.w3.org/2000/svg" viewBox="-2307 1028 17.875 22">
  <defs>
    <style>
      .cls-1 {
        fill: #ee3124;
      }
    </style>
  </defs>
  <g id="Group_8390" data-name="Group 8390" transform="translate(-2507 -2563)">
    <path id="Path_17786" data-name="Path 17786" class="cls-1" d="M11.438,21.125a.624.624,0,0,1-.481-.206l-2.75-2.75a.681.681,0,0,1,.962-.962l2.269,2.269,2.269-2.269a.681.681,0,0,1,.962.962l-2.75,2.75A.624.624,0,0,1,11.438,21.125Z" transform="translate(197.5 3585.688)"/>
    <path id="Path_17787" data-name="Path 17787" class="cls-1" d="M12.688,19.25A.65.65,0,0,1,12,18.562V11.688a.688.688,0,0,1,1.375,0v6.875A.65.65,0,0,1,12.688,19.25Z" transform="translate(196.25 3587.563)"/>
    <path id="Path_17788" data-name="Path 17788" class="cls-1" d="M14.938,26.375H6.688a.687.687,0,1,1,0-1.375h8.25a.687.687,0,1,1,0,1.375Z" transform="translate(198.125 3583.188)"/>
    <path id="Path_17789" data-name="Path 17789" class="cls-1" d="M16.087,22H1.788A1.761,1.761,0,0,1,0,20.281V6.187A2.238,2.238,0,0,1,.688,4.606L4.537.688A2.132,2.132,0,0,1,6.187,0h9.969a1.746,1.746,0,0,1,1.719,1.719V20.281A1.719,1.719,0,0,1,16.087,22ZM6.187,1.375A.883.883,0,0,0,5.5,1.65L1.65,5.5a.883.883,0,0,0-.275.687V20.281a.385.385,0,0,0,.413.344H16.156a.385.385,0,0,0,.412-.344V1.719a.517.517,0,0,0-.481-.344Z" transform="translate(200 3591)"/>
    <path id="Path_17790" data-name="Path 17790" class="cls-1" d="M6.094,7.813H3.688A.65.65,0,0,1,3,7.125a.65.65,0,0,1,.688-.687H6.094a.325.325,0,0,0,.344-.344V3.688A.65.65,0,0,1,7.125,3a.65.65,0,0,1,.688.688V6.094A1.7,1.7,0,0,1,6.094,7.813Z" transform="translate(199.063 3590.063)"/>
  </g>
</svg>
