<svg xmlns="http://www.w3.org/2000/svg" viewBox="0 0 152.67 103.67"><title>stayinformed</title><g id="Layer_1" data-name="Layer 1"><rect x="1" y="1" width="150.67" height="101.67" style="fill:#fff;stroke:#fff;stroke-miterlimit:10;stroke-width:2px"/></g><g id="Layer_2" data-name="Layer 2"><rect x="39.81" y="26.56" width="23.91" height="14.77" style="fill:#cccacb"/><circle cx="48" cy="32.18" r="2.86" style="fill:#fff"/><path d="M47.18,35h1.64a3.35,3.35,0,0,1,3.35,3.35v3.17a0,0,0,0,1,0,0H43.83a0,0,0,0,1,0,0V38.4A3.35,3.35,0,0,1,47.18,35Z" style="fill:#fff"/><circle cx="55.95" cy="34.09" r="2.58" style="fill:#fff"/><path d="M55.21,36.67h1.48a3,3,0,0,1,3,3v1.87a0,0,0,0,1,0,0H52.2a0,0,0,0,1,0,0V39.69A3,3,0,0,1,55.21,36.67Z" style="fill:#fff"/><rect x="32.5" y="11.79" width="87.67" height="8.86" style="fill:#756f71"/><rect x="32.5" y="11.79" width="87.67" height="34.95" style="fill:none;stroke:#292526;stroke-linecap:round;stroke-miterlimit:10;stroke-width:2.5px"/><polygon points="120.17 54.72 32.5 54.72 32.5 81.05 44.29 81.05 43.29 91.87 55.68 81.05 120.17 81.05 120.17 54.72" style="fill:#fff;stroke:#292526;stroke-linecap:round;stroke-miterlimit:10;stroke-width:2.5px"/><text transform="translate(106.64 74.16)" style="font-size:17.39246940612793px;fill:#756f71;font-family:HelveticaNeue-BoldCond, Helvetica Neue;font-weight:700">!</text><line x1="71.81" y1="29.22" x2="111.26" y2="29.22" style="fill:none;stroke:#756f71;stroke-linecap:round;stroke-miterlimit:10;stroke-width:2.5px"/><line x1="71.81" y1="37.83" x2="111.26" y2="37.83" style="fill:none;stroke:#756f71;stroke-linecap:round;stroke-miterlimit:10;stroke-width:2.5px"/><line x1="40.21" y1="63.58" x2="99.76" y2="63.58" style="fill:none;stroke:#756f71;stroke-linecap:round;stroke-miterlimit:10;stroke-width:2.5px"/><line x1="40.21" y1="72.2" x2="99.76" y2="72.2" style="fill:none;stroke:#756f71;stroke-linecap:round;stroke-miterlimit:10;stroke-width:2.5px"/></g></svg>