<svg xmlns="http://www.w3.org/2000/svg" viewBox="931.587 4008.157 276.172 32.983">
  <defs>
    <style>
      .cls-1 {
        fill: #746f71;
      }
    </style>
  </defs>
  <g id="Group_8687" data-name="Group 8687" transform="translate(931.587 4008.157)">
    <g id="Group_8685" data-name="Group 8685">
      <path id="Path_18675" data-name="Path 18675" class="cls-1" d="M16.492,0A16.492,16.492,0,1,0,32.983,16.492,16.476,16.476,0,0,0,16.492,0Zm5.747,26.924A10.432,10.432,0,1,1,32.671,16.492,10.451,10.451,0,0,1,22.239,26.924Z"/>
      <ellipse id="Ellipse_160" data-name="Ellipse 160" class="cls-1" cx="5.685" cy="5.685" rx="5.685" ry="5.685" transform="translate(20.989 10.807)"/>
    </g>
    <g id="Group_8686" data-name="Group 8686" transform="translate(40.979 6.309)">
      <path id="Path_18676" data-name="Path 18676" class="cls-1" d="M65.6,26.954l1.937-2.311a8.62,8.62,0,0,0,5.81,2.374c2,0,3.248-.937,3.248-2.311v-.062c0-1.312-.75-2-4.185-2.811-3.936-.937-6.122-2.124-6.122-5.5v-.062c0-3.186,2.624-5.372,6.309-5.372a10.218,10.218,0,0,1,6.684,2.311l-1.749,2.436a8.307,8.307,0,0,0-5-1.874c-1.874,0-3,1-3,2.186v.062c0,1.437.875,2.061,4.373,2.874,3.873.937,5.934,2.374,5.934,5.372v.062c0,3.436-2.686,5.5-6.622,5.5A10.619,10.619,0,0,1,65.6,26.954Z" transform="translate(-65.6 -10.4)"/>
      <path id="Path_18677" data-name="Path 18677" class="cls-1" d="M93.8,10.1h3.186v7.5a4.992,4.992,0,0,1,4.373-2.436c3.123,0,4.935,2.124,4.935,5.372V29.4h-3.186V21.469c0-2.186-1.062-3.373-3-3.373-1.874,0-3.123,1.312-3.123,3.436V29.4H93.8Z" transform="translate(-76.184 -10.1)"/>
      <path id="Path_18678" data-name="Path 18678" class="cls-1" d="M127.633,32.38V30.694a5.588,5.588,0,0,1-4.5,2c-2.624,0-4.935-1.5-4.935-4.31V28.32c0-3.061,2.374-4.56,5.622-4.56a13.044,13.044,0,0,1,3.873.562v-.25c0-1.937-1.187-3-3.436-3a9.373,9.373,0,0,0-4,.875l-.875-2.561A12.12,12.12,0,0,1,124.7,18.2c4.123,0,6.122,2.186,6.122,5.872v8.246l-3.186.062Zm.062-5.81a9.1,9.1,0,0,0-3.186-.562c-2,0-3.186.812-3.186,2.186v.062c0,1.312,1.187,2.061,2.686,2.061,2.124,0,3.686-1.187,3.686-2.936v-.812Z" transform="translate(-85.342 -13.14)"/>
      <path id="Path_18679" data-name="Path 18679" class="cls-1" d="M144.2,18.512h3.186v2.311a5.6,5.6,0,0,1,4.748-2.624c3.311,0,6.5,2.624,6.5,7.246v.062c0,4.623-3.186,7.246-6.5,7.246a5.835,5.835,0,0,1-4.748-2.436v6.372H144.2Zm11.182,6.934h0c0-2.749-1.812-4.5-4-4.5a4.188,4.188,0,0,0-4.06,4.435v.062a4.15,4.15,0,0,0,4.06,4.435C153.57,29.944,155.382,28.195,155.382,25.446Z" transform="translate(-95.1 -13.14)"/>
      <path id="Path_18680" data-name="Path 18680" class="cls-1" d="M170.9,25.509h0c0-4.06,2.811-7.309,6.809-7.309,4.435,0,6.684,3.5,6.684,7.5a4.122,4.122,0,0,1-.062.875H174.086a3.892,3.892,0,0,0,4,3.561,4.807,4.807,0,0,0,3.748-1.687l1.874,1.687a7.074,7.074,0,0,1-5.685,2.624A7,7,0,0,1,170.9,25.509Zm10.307-1.062c-.187-2.061-1.437-3.686-3.561-3.686-1.937,0-3.311,1.5-3.623,3.686Z" transform="translate(-105.121 -13.14)"/>
      <path id="Path_18681" data-name="Path 18681" class="cls-1" d="M210.809,22.582,203.5,11.4h3.811l5.185,8.183,5.247-8.183h3.686L214.12,22.519v7.371h-3.248V22.582Z" transform="translate(-117.356 -10.588)"/>
      <path id="Path_18682" data-name="Path 18682" class="cls-1" d="M230.4,25.509h0a7.435,7.435,0,0,1,14.867-.062v.062a7.436,7.436,0,0,1-14.867,0Zm11.619,0h0a4.328,4.328,0,0,0-4.248-4.56,4.17,4.17,0,0,0-4.185,4.435v.062a4.31,4.31,0,0,0,4.248,4.5A4.17,4.17,0,0,0,242.019,25.509Z" transform="translate(-127.452 -13.14)"/>
      <path id="Path_18683" data-name="Path 18683" class="cls-1" d="M258.7,27.508V18.7h3.186v7.871c0,2.186,1.062,3.373,3,3.373,1.874,0,3.123-1.312,3.123-3.436V18.7h3.186V32.63h-3.186V30.444a4.992,4.992,0,0,1-4.373,2.436C260.512,32.88,258.7,30.756,258.7,27.508Z" transform="translate(-138.074 -13.328)"/>
      <path id="Path_18684" data-name="Path 18684" class="cls-1" d="M284.8,18.545h3.186v3.123a4.938,4.938,0,0,1,4.935-3.373v3.373h-.187c-2.811,0-4.748,1.812-4.748,5.5v5.31H284.8Z" transform="translate(-147.87 -13.173)"/>
      <path id="Path_18685" data-name="Path 18685" class="cls-1" d="M311.1,11.4h13.743v2.936H314.348V19.4h9.308v2.936h-9.308v7.5H311.1Z" transform="translate(-157.741 -10.588)"/>
      <path id="Path_18686" data-name="Path 18686" class="cls-1" d="M336.4,27.508V18.7h3.186v7.871c0,2.186,1.062,3.373,3,3.373,1.874,0,3.123-1.312,3.123-3.436V18.7h3.186V32.63h-3.186V30.444a4.992,4.992,0,0,1-4.373,2.436C338.212,32.88,336.4,30.756,336.4,27.508Z" transform="translate(-167.236 -13.328)"/>
      <path id="Path_18687" data-name="Path 18687" class="cls-1" d="M362.449,26.43V19.059H360.7V16.311h1.749V12.5h3.186v3.811h3.748v2.749h-3.748v6.809c0,1.249.625,1.749,1.687,1.749a4.507,4.507,0,0,0,2-.5v2.624a5.749,5.749,0,0,1-2.873.687C364.136,30.491,362.449,29.491,362.449,26.43Z" transform="translate(-176.356 -11.001)"/>
      <path id="Path_18688" data-name="Path 18688" class="cls-1" d="M378.9,27.508V18.7h3.186v7.871c0,2.186,1.062,3.373,3,3.373,1.874,0,3.123-1.312,3.123-3.436V18.7h3.186V32.63h-3.186V30.444a4.992,4.992,0,0,1-4.373,2.436C380.712,32.88,378.9,30.756,378.9,27.508Z" transform="translate(-183.187 -13.328)"/>
      <path id="Path_18689" data-name="Path 18689" class="cls-1" d="M405,18.545h3.186v3.123a4.938,4.938,0,0,1,4.935-3.373v3.373h-.187c-2.811,0-4.748,1.812-4.748,5.5v5.31H405Z" transform="translate(-192.983 -13.173)"/>
      <path id="Path_18690" data-name="Path 18690" class="cls-1" d="M420.5,25.509h0c0-4.06,2.811-7.309,6.809-7.309,4.435,0,6.684,3.5,6.684,7.5a4.122,4.122,0,0,1-.062.875H423.686a3.933,3.933,0,0,0,4,3.561,4.807,4.807,0,0,0,3.748-1.687l1.874,1.687a7.074,7.074,0,0,1-5.685,2.624A6.959,6.959,0,0,1,420.5,25.509Zm10.307-1.062c-.187-2.061-1.437-3.686-3.561-3.686-1.936,0-3.311,1.5-3.623,3.686Z" transform="translate(-198.8 -13.14)"/>
    </g>
  </g>
</svg>
