<svg xmlns="http://www.w3.org/2000/svg" viewBox="697.379 4008.157 184.338 32.983">
  <defs>
    <style>
      .cls-1 {
        fill: #746f71;
      }
    </style>
  </defs>
  <path id="Path_18691" data-name="Path 18691" class="cls-1" d="M92.588,29.8V4.855H103.3V1.172H77.352V4.855H88.234V29.8Zm24.947-3.014c-4.353,0-9.209-1.339-9.209-6.53H104.14c0,7.869,6.7,10.213,13.227,10.213,5.86,0,12.39-2.009,12.39-9.376,0-5.86-6.362-6.865-8.706-7.367l-7.2-1.172c-3.516-.67-4.688-2.009-4.688-3.851,0-3.349,3.516-4.688,6.7-4.688,6.865,0,8.2,3.014,8.539,5.358h4.186C128.25,2.511,122.222.335,116.362.335,109,.335,104.81,3.851,104.81,9.041c0,5.525,5.023,6.865,8.539,7.534l6.53,1c3.349.5,5.358,1.674,5.358,4.186C125.236,25.114,122.055,26.788,117.534,26.788ZM156.378,4.855V1.172H133.273V29.8h23.44V26.119H137.458V16.743h18.25V13.059h-18.25v-8.2ZM173.623,29.8V4.855h10.715V1.172H158.554V4.855H169.27V29.8Zm-147-2.177-4.186-1.172C22.6,26.621,24.277,26.956,26.621,27.626Zm-4.353-5.86v0Zm0,0,.167,4.353v.335h0l4.186,1.172c.167-1.674.335-3.014.5-3.851A14.129,14.129,0,0,1,22.268,21.766ZM54.247,32.146c1.842.167,3.851.335,5.693.335C58.767,27.123,57.93,22.1,57.26,17.915A110.041,110.041,0,0,1,54.247,32.146ZM66.8,1.842,66.636,0ZM53.912,5.693c3.851,1,8.2-.335,12.725-3.683V.167h-7.2A7.252,7.252,0,0,1,59.6,1,2.581,2.581,0,0,1,57.6,3.683a2.308,2.308,0,0,1-2.177-2.511A2.849,2.849,0,0,1,55.586,0H46.377A15.615,15.615,0,0,0,53.912,5.693ZM66.8,5.023l1,27.793h0Zm1,27.96v-.167h0Zm-2.846-.167c1.674.167,2.846.167,2.846.167h0v-.335H64.962Zm-2.177-.167c.837,0,1.507.167,2.177.167h2.846l-1-27.793a21.038,21.038,0,0,1-7.869,3.349A195.859,195.859,0,0,0,62.785,32.648ZM43.2,31.476l-2.846-.5C41.522,31.142,42.527,31.476,43.2,31.476Zm-2.846-.5,2.846.5c-.5-2.846-1-5.693-1.339-8.037C41.355,25.616,41.02,28.128,40.35,30.974Zm5.19.67ZM21.933,5.86l.335,13.562ZM38.174,30.472,29.8,28.463C32.481,29.132,35.495,29.8,38.174,30.472ZM53.242,8.2C48.052,6.865,44.7,2.846,43.029,0H0V4.353H1.842l20.091.837v.5l.335,13.562a10.09,10.09,0,0,0,5.693,2.679c2.679.167,5.19-1,7.7-3.683L37,19.589c-2.511,2.511-5.023,4.018-7.7,4.186.167,1,.335,2.679.5,4.688l8.371,2.009c0-.335.167-.67.167-1a90.162,90.162,0,0,0,2.177-13.562c-6.027-.837-10.046-6.362-10.213-6.7l1.842-1.339s3.851,5.358,9.376,5.86c3.014.167,6.195-1.172,9.041-4.353l1.674,1.507a15,15,0,0,1-9.209,5.023c.335,2.846,1,8.874,2.344,15.738h0c1.339,0,3.516.167,6.027.335A140.625,140.625,0,0,0,55.753,8.706C55.084,8.539,54.079,8.371,53.242,8.2ZM28.128,20.259a1.546,1.546,0,0,1-1.507-1.674c0-1,.67-1.842,1.339-1.842a1.546,1.546,0,0,1,1.507,1.674A1.491,1.491,0,0,1,28.128,20.259Zm13.9-8.539a1.9,1.9,0,0,1-1.842-2.009c0-1.172.67-2.177,1.674-2.177A1.9,1.9,0,0,1,43.7,9.543,2.064,2.064,0,0,1,42.024,11.72Z" transform="translate(697.379 4008.157)"/>
</svg>
