<svg xmlns="http://www.w3.org/2000/svg" viewBox="702.787 4110.719 504.557 78.104">
  <defs>
    <style>
      .cls-1 {
        fill: #746f71;
      }

      .cls-2 {
        fill: #ee3124;
      }
    </style>
  </defs>
  <g id="Group_8684" data-name="Group 8684" transform="translate(501.787 733.545)">
    <path id="Path_18658" data-name="Path 18658" class="cls-1" d="M166.773,21.915c-3.185-3.058-5.861-5.479-5.861-10.066,0-1.529.382-2.8,1.529-2.8,1.4,0,2.039.255,2.293,7.645l9.811-.764C174.163,5.606,171.488,0,162.186,0c-7.9,0-11.722,5.1-11.722,13,0,7.645,4.2,11.849,7.9,15.8,3.313,3.44,6.243,5.861,6.243,9.683,0,2.293-.764,3.44-2.166,3.44-2.039,0-2.421-1.656-2.931-8.792l-9.811.637c.51,9.556,1.911,16.819,12.741,16.819,8.282,0,12.614-4.459,12.614-12.741S170.6,25.865,166.773,21.915ZM197.607.51H174.673V9.683h6.116V50.2h10.575V9.683h6.116L197.607.51ZM210.349,0c-8.792,0-13,6.753-13,25.355,0,18.475,4.2,25.355,13,25.355s13-6.753,13-25.355C223.345,6.88,219.013,0,210.349,0Zm0,41.282c-2.039,0-2.166-3.313-2.166-15.927s.127-15.544,2.166-15.544,2.166,3.058,2.166,15.544C212.515,37.969,212.387,41.282,210.349,41.282ZM236.723.51H225.638V50.2h10.448V35.039h.382c6.243,0,13.506-1.019,13.506-17.583C250.1,2.8,243.221.51,236.723.51ZM236.6,26.247h-.51V9.683h.51c1.656,0,3.185.127,3.185,7.9C239.781,25.865,238.252,26.247,236.6,26.247Zm31.216-4.332c-3.185-3.058-5.861-5.479-5.861-10.066,0-1.529.382-2.8,1.529-2.8,1.4,0,2.039.255,2.293,7.645l9.811-.764C275.2,5.606,272.526,0,263.225,0c-7.9,0-11.722,5.1-11.722,13,0,7.645,4.2,11.849,7.9,15.8,3.313,3.44,6.243,5.861,6.243,9.683,0,2.293-.764,3.44-2.166,3.44-2.039,0-2.421-1.656-2.931-8.792l-9.811.637c.51,9.556,1.911,16.819,12.741,16.819,8.282,0,12.614-4.459,12.614-12.741S271.634,25.865,267.812,21.915Zm42.174-1.274c-.255,4.2-.382,6.5-.637,10.83h0c-.255-4.2-.382-6.625-.764-10.83L306.8.51h-7.135l-2.293,20.259-.892,10.7c.255-3.95-.127,0-.127,0-.127-4.077-.382-7.39-.51-10.7L294.441.51h-10.32l5.988,49.819h9.683l2.548-27.521h.127l2.548,27.521H314.7L320.816.51H311.26ZM322.6,50.2h10.575V.51H322.6ZM335.214,9.683h6.116V50.2H351.9V9.683h6.116V.51H335.086V9.683ZM373.947.51V19.622H370.38V.51H359.8V50.2H370.38V28.158h3.568V50.2h10.575V.51Z" transform="translate(242.038 3377.174)"/>
    <path id="Path_18659" data-name="Path 18659" class="cls-1" d="M22.934.51H0V9.683H6.116V50.2H16.691V9.683h6.243ZM35.676,0c-8.792,0-13,6.753-13,25.355,0,18.475,4.2,25.355,13,25.355s13-6.753,13-25.355C48.8,6.88,44.467,0,35.676,0Zm0,41.282c-2.039,0-2.166-3.313-2.166-15.927s.127-15.544,2.166-15.544,2.166,3.058,2.166,15.544C37.842,37.969,37.842,41.282,35.676,41.282ZM68.931,24.718v-.127c3.185-1.147,5.734-3.568,5.734-11.467C74.664,3.44,68.676.51,61.923.51H51.093V50.2H62.815c6.88,0,12.869-3.058,12.869-13.378C75.683,28.413,72.626,25.865,68.931,24.718ZM61.413,9.429h.764c1.147,0,2.293.382,2.293,5.734s-1.147,5.988-2.293,5.988h-.764ZM62.305,42.3h-.892V28.158h.764c1.784,0,3.058,1.4,3.058,7.135C65.236,40.517,64.089,42.3,62.305,42.3ZM83.073.382,75.046,50.2h9.938l.892-9.3h4.587l1.019,9.3h10.7L94.158.382Zm3.44,33.51c.51-3.95.892-8.792,1.274-12.1.127-1.656.382-3.313.51-4.842h.127c.127,1.529.255,3.185.51,4.842.382,3.185.764,8.154,1.147,12.1Zm27.776,7.39c-2.039,0-2.039-3.695-2.039-15.927,0-11.849-.127-15.544,2.039-15.544,1.656,0,2.039,1.656,2.039,11.085l10.066-.382c0-16.436-3.313-20.386-12.1-20.386S101.421,6.88,101.421,25.483c0,18.475,4.077,25.355,12.869,25.355,10.575,0,11.849-9.174,12.359-19.622l-10.066-.382C116.456,40.135,115.946,41.282,114.29,41.282Zm26.375,0c-2.039,0-2.039-3.695-2.039-15.927,0-11.849-.127-15.544,2.039-15.544,1.656,0,2.039,1.656,2.039,11.085l10.066-.382c0-16.436-3.313-20.386-12.1-20.386S127.8,6.88,127.8,25.483c0,18.475,4.077,25.355,12.869,25.355,10.575,0,11.849-9.174,12.359-19.622l-10.066-.382C142.83,40.135,142.448,41.282,140.664,41.282ZM167.294,0c-8.792,0-13,6.753-13,25.355,0,18.475,4.2,25.355,13,25.355,8.664,0,13-6.753,13-25.355C180.29,6.88,175.958,0,167.294,0Zm0,41.282c-2.039,0-2.166-3.313-2.166-15.927s.127-15.544,2.166-15.544,2.166,3.058,2.166,15.544C169.46,37.969,169.332,41.282,167.294,41.282Z" transform="translate(201 3377.174)"/>
    <path id="Path_18660" data-name="Path 18660" class="cls-2" d="M359.217,26.9h0L356.286.4H343.8V50.091h8.537V32.508c0-4.332,0-9.556-.127-10.958h.127c.51,5.479.637,8.027,1.019,10.958l2.421,17.71h5.1l2.421-17.71c.382-2.931.764-6.88,1.019-11.085h.127c0,2.8-.127,7.135-.127,11.085V50.091h9.938V.4H361.893Zm29.178,1.019h6.116V19.512h-6.116V9.574h8.537V.4H377.692V50.091h19.367V41.3h-8.664V27.921Zm10.7,10.7V50.091H410.31V38.624H399.1Z" transform="translate(295.247 3377.284)"/>
    <path id="Path_18661" data-name="Path 18661" class="cls-1" d="M292.221,61.68H289.8l2.676-14.78h3.185l2.676,14.78h-2.421l-.51-3.313h-2.8Zm.892-5.479h2.039l-1.019-6.371h0Z" transform="translate(280.444 3390.031)"/>
    <path id="Path_18662" data-name="Path 18662" class="cls-1" d="M301.2,61.68V46.9h3.568c3.058,0,4.587,1.147,4.587,4.332s-1.4,4.332-4.587,4.332h-1.147v5.988l-2.421.127Zm2.548-8.154h1.019c1.656,0,2.166-.51,2.166-2.293s-.51-2.293-2.166-2.293h-1.019Z" transform="translate(283.569 3390.031)"/>
    <path id="Path_18663" data-name="Path 18663" class="cls-1" d="M309.1,60.912V49.955h2.166v1.274h0a3.059,3.059,0,0,1,2.548-1.529h.51v2.421a4.16,4.16,0,0,0-1.529-.255,1.469,1.469,0,0,0-1.529,1.529v7.517Z" transform="translate(285.734 3390.798)"/>
    <path id="Path_18664" data-name="Path 18664" class="cls-1" d="M314.4,53.777c0-2.421.892-4.077,3.568-4.077s3.568,1.656,3.568,4.077v3.185c0,2.421-.892,4.077-3.568,4.077s-3.568-1.656-3.568-4.077Zm4.714-.382c0-1.274-.51-1.784-1.274-1.784s-1.274.51-1.274,1.784v4.077c0,1.274.51,1.784,1.274,1.784s1.274-.51,1.274-1.784Z" transform="translate(287.187 3390.798)"/>
    <path id="Path_18665" data-name="Path 18665" class="cls-1" d="M329.309,51.584h-.382a2.055,2.055,0,0,0-1.147.382,8.6,8.6,0,0,1,.255,1.784c0,3.313-1.147,4.459-3.44,4.459h-.764a.548.548,0,0,0-.51.51c0,1.529,5.861-.764,5.861,3.185,0,1.911-1.784,2.548-4.714,2.548-2.293,0-3.568-.637-3.568-1.784a1.663,1.663,0,0,1,1.529-1.656h0a1.381,1.381,0,0,1-1.019-1.4c0-.764.765-1.4,1.4-1.784-1.147-.764-1.529-1.4-1.529-3.95,0-3.058,1.019-4.077,3.568-4.077a3.4,3.4,0,0,1,2.548,1.147c.637-.892.892-1.147,1.911-1.147v1.784ZM327.271,61.9c0-.51-.382-.764-1.911-.764s-1.911.255-1.911.764.382.764,1.911.764S327.271,62.541,327.271,61.9Zm-1.4-8.027c0-1.911-.255-2.293-1.147-2.293-.764,0-1.147.51-1.147,2.293s.382,2.293,1.147,2.293C325.614,56.171,325.869,55.788,325.869,53.877Z" transform="translate(288.969 3390.826)"/>
    <path id="Path_18666" data-name="Path 18666" class="cls-1" d="M328.7,60.912V49.955h2.166v1.274h0a3.059,3.059,0,0,1,2.548-1.529h.51v2.421a4.159,4.159,0,0,0-1.529-.255,1.469,1.469,0,0,0-1.529,1.529v7.517Z" transform="translate(291.107 3390.798)"/>
    <path id="Path_18667" data-name="Path 18667" class="cls-1" d="M333.827,53.14a3.414,3.414,0,0,1,3.7-3.44c2.166,0,3.313,1.019,3.313,2.931v7.008c0,.382.127.764.127,1.147H338.8c0-.255-.127-.637-.127-.892a4.112,4.112,0,0,1-2.676,1.019,2.176,2.176,0,0,1-2.293-2.421c0-2.421,1.529-3.695,4.842-4.969v-.637c0-.892-.382-1.4-1.147-1.4-1.019,0-1.274.637-1.274,1.529h-2.293Zm4.714,2.166c-2.039,1.147-2.548,1.911-2.548,2.93,0,.764.382,1.019,1.019,1.019a2.1,2.1,0,0,0,1.529-1.019Z" transform="translate(292.478 3390.798)"/>
    <path id="Path_18668" data-name="Path 18668" class="cls-1" d="M345.687,60.885V52.348a.734.734,0,0,0-.765-.764,3.025,3.025,0,0,0-1.529.637v8.664H341.1V49.927h2.166v1.147c1.019-.764,1.4-1.274,2.548-1.274a1.966,1.966,0,0,1,2.039,1.274C349,50.055,349.509,49.8,350.4,49.8a2.046,2.046,0,0,1,2.166,2.293v8.919h-2.293V52.476a.734.734,0,0,0-.764-.764,2.323,2.323,0,0,0-1.4.637v8.664h-2.421v-.127Z" transform="translate(294.507 3390.826)"/>
    <path id="Path_18669" data-name="Path 18669" class="cls-1" d="M355.2,53.777c0-2.421.892-4.077,3.568-4.077s3.568,1.656,3.568,4.077v3.185c0,2.421-.892,4.077-3.568,4.077s-3.568-1.656-3.568-4.077Zm4.842-.382c0-1.274-.51-1.784-1.274-1.784s-1.274.51-1.274,1.784v4.077c0,1.274.51,1.784,1.274,1.784s1.274-.51,1.274-1.784Z" transform="translate(298.372 3390.798)"/>
    <path id="Path_18670" data-name="Path 18670" class="cls-1" d="M363.1,52.661h-1.4V50.75h1.4v-1.4A2.235,2.235,0,0,1,365.65,46.8H366.8v1.911h-.637a.676.676,0,0,0-.764.764v1.4h1.274v1.911h-1.274v9.046H363.1Z" transform="translate(300.154 3390.004)"/>
    <path id="Path_18671" data-name="Path 18671" class="cls-1" d="M372.221,49.166H369.8V47h7.39v2.166h-2.421V61.653h-2.548Z" transform="translate(302.374 3390.058)"/>
    <path id="Path_18672" data-name="Path 18672" class="cls-1" d="M381.551,50.65c-.127-1.274-.764-1.656-1.4-1.656a1.242,1.242,0,0,0-1.274,1.4c0,2.548,5.1,3.695,5.1,7.772a3.645,3.645,0,0,1-3.95,3.822c-2.293,0-3.7-1.911-3.822-4.077l2.421-.382c.127,1.529.637,2.166,1.529,2.166a1.374,1.374,0,0,0,1.529-1.4c0-2.931-5.1-3.695-5.1-7.9,0-2.293,1.4-3.695,3.95-3.695,2.039,0,3.313,1.529,3.568,3.568Z" transform="translate(304.129 3389.976)"/>
    <path id="Path_18673" data-name="Path 18673" class="cls-1" d="M383.8,61.68V46.9h6.753v2.166h-4.2v3.822h3.313v2.166h-3.313v4.332h4.587v2.166l-7.135.127Z" transform="translate(306.212 3390.031)"/>
    <path id="Path_18674" data-name="Path 18674" class="cls-1" d="M392.621,49.166H390.2V47h7.39v2.166h-2.421V61.653h-2.548Z" transform="translate(307.967 3390.058)"/>
  </g>
</svg>
