<svg xmlns="http://www.w3.org/2000/svg" viewBox="-14677 43 401.029 69.978">
  <defs>
    <style>
      .cls-1 {
        fill: #fff;
      }

      .cls-2 {
        fill: #ee3124;
      }
    </style>
  </defs>
  <g id="Group_10752" data-name="Group 10752" transform="translate(-14677 43)">
    <g id="Group_10750" data-name="Group 10750" transform="translate(0 0)">
      <path id="Path_23249" data-name="Path 23249" class="cls-1" d="M163.27,17.418c-2.532-2.43-4.658-4.355-4.658-8,0-1.215.3-2.228,1.215-2.228,1.114,0,1.62.2,1.823,6.076l7.8-.608c-.3-8.2-2.43-12.659-9.823-12.659-6.279,0-9.317,4.051-9.317,10.33,0,6.076,3.342,9.418,6.279,12.557,2.633,2.734,4.962,4.658,4.962,7.7,0,1.823-.608,2.734-1.722,2.734-1.62,0-1.924-1.317-2.329-6.988l-7.8.506c.405,7.6,1.519,13.368,10.127,13.368,6.583,0,10.026-3.544,10.026-10.127S166.308,20.457,163.27,17.418ZM187.778.405H169.549V7.7h4.861V39.9h8.405V7.6h4.861V.405ZM197.9,0c-6.988,0-10.33,5.367-10.33,20.153,0,14.684,3.342,20.153,10.33,20.153s10.33-5.367,10.33-20.153S204.791,0,197.9,0Zm0,32.71c-1.62,0-1.722-2.633-1.722-12.659S196.284,7.7,197.9,7.7s1.722,2.43,1.722,12.355C199.626,30.077,199.525,32.71,197.9,32.71ZM218.867.405h-8.81V39.9h8.3V27.748h.3c4.962,0,10.735-.81,10.735-13.975C229.5,2.228,224.032.405,218.867.405Zm-.1,20.355h-.405V7.6h.405c1.317,0,2.532.1,2.532,6.279C221.3,20.558,220.083,20.76,218.766,20.76Zm24.811-3.342c-2.532-2.43-4.658-4.355-4.658-8,0-1.215.3-2.228,1.215-2.228,1.114,0,1.62.2,1.823,6.076l7.8-.608c-.3-8.2-2.43-12.659-9.823-12.659-6.279,0-9.317,4.051-9.317,10.33,0,6.076,3.342,9.418,6.279,12.557,2.633,2.734,4.962,4.658,4.962,7.7,0,1.823-.608,2.734-1.722,2.734-1.62,0-1.924-1.317-2.329-6.988l-7.8.506c.405,7.6,1.519,13.368,10.127,13.368,6.583,0,10.026-3.544,10.026-10.127S246.615,20.457,243.577,17.418Zm33.52-1.013c-.2,3.342-.3,5.165-.506,8.608h0c-.2-3.342-.3-5.266-.608-8.608l-1.418-16h-5.671l-1.823,16.1-.709,8.507c.2-3.139-.1,0-.1,0-.1-3.241-.3-5.874-.405-8.507L264.743.405h-8.2L261.3,40H269l2.025-21.874h.1L273.148,40h7.7l4.861-39.6h-7.6ZM287.123,39.9h8.405V.405h-8.405ZM297.149,7.6h4.861V39.8h8.405V7.6h4.861V.405H297.048V7.6ZM327.935.405V15.6H325.1V.405h-8.405V39.9H325.1V22.279h2.836V39.8h8.405V.3h-8.405Z" transform="translate(1.901 0)"/>
      <path id="Path_23250" data-name="Path 23250" class="cls-1" d="M18.229.405H0V7.7H4.861V39.9h8.405V7.6h4.962ZM28.356,0c-6.988,0-10.33,5.367-10.33,20.153,0,14.684,3.342,20.153,10.33,20.153s10.33-5.367,10.33-20.153C38.786,5.367,35.343,0,28.356,0Zm0,32.71c-1.62,0-1.722-2.633-1.722-12.659S26.735,7.7,28.356,7.7s1.722,2.43,1.722,12.355C30.077,30.077,30.077,32.71,28.356,32.71ZM54.787,19.545v-.1c2.532-.911,4.557-2.836,4.557-9.114C59.344,2.633,54.584.3,49.217.3H40.609V39.8h9.317c5.469,0,10.228-2.43,10.228-10.633C60.154,22.482,57.724,20.457,54.787,19.545ZM48.812,7.494h.608c.911,0,1.823.3,1.823,4.557s-.911,4.76-1.823,4.76h-.608Zm.709,26.026h-.709V22.381h.608c1.418,0,2.43,1.114,2.43,5.671C51.85,32.2,50.939,33.52,49.521,33.52ZM66.028.2l-6.38,39.6h7.9l.709-7.393H71.9l.81,7.393h8.507L74.838.2Zm2.734,26.735c.405-3.139.709-6.988,1.013-9.621.1-1.317.3-2.633.405-3.848h.1c.1,1.215.2,2.532.405,3.848.3,2.532.608,6.481.911,9.621ZM90.839,32.71c-1.62,0-1.62-2.937-1.62-12.659,0-9.418-.1-12.355,1.62-12.355,1.317,0,1.62,1.317,1.62,8.81l8-.3C100.46,3.139,97.827,0,90.839,0S80.611,5.367,80.611,20.153c0,14.684,3.241,20.153,10.228,20.153,8.405,0,9.418-7.291,9.823-15.6l-8-.405C92.561,31.9,92.156,32.71,90.839,32.71Zm20.963,0c-1.62,0-1.62-2.937-1.62-12.659,0-9.418-.1-12.355,1.62-12.355,1.316,0,1.62,1.317,1.62,8.81l8-.3C121.423,3.139,118.79,0,111.8,0s-10.228,5.367-10.228,20.153c0,14.684,3.241,20.153,10.228,20.153,8.405,0,9.418-7.291,9.823-15.6l-8-.3C113.524,31.9,113.22,32.71,111.8,32.71ZM132.967,0c-6.988,0-10.33,5.367-10.33,20.153,0,14.684,3.342,20.153,10.33,20.153,6.886,0,10.33-5.367,10.33-20.153S139.854,0,132.967,0Zm0,32.71c-1.62,0-1.722-2.633-1.722-12.659s.1-12.355,1.722-12.355,1.722,2.43,1.722,12.355C134.689,30.077,134.588,32.71,132.967,32.71Z" transform="translate(0 0)"/>
      <path id="Path_23251" data-name="Path 23251" class="cls-2" d="M356.054,21.364h0L353.725.3H343.8V39.8h6.785V25.921c0-3.443,0-7.6-.1-8.709h.1c.405,4.355.506,6.38.81,8.709L353.319,40h4.051l1.924-14.077c.3-2.329.608-5.469.81-8.81h.1c0,2.228-.1,5.671-.1,8.81V39.9H368V.4H358.18Zm23.191.911h4.861V15.592h-4.861v-8h6.785V.4H370.738V39.9h15.393V32.909h-6.886V22.276Zm8.507,8.507V39.9h8.912V30.782Z" transform="translate(4.366 0.004)"/>
    </g>
    <g id="Group_10751" data-name="Group 10751" transform="translate(258.643 50.534)">
      <path id="Path_23252" data-name="Path 23252" class="cls-1" d="M257.932,65.694H255.4L258.236,50.2h3.342l2.835,15.494h-2.532l-.506-3.443h-2.937Zm.81-5.772h2.127l-1.013-6.684h0Z" transform="translate(-255.4 -49.896)"/>
      <path id="Path_23253" data-name="Path 23253" class="cls-1" d="M270.5,65.694V50.2h3.848c3.241,0,4.76,1.215,4.76,4.557s-1.519,4.557-4.76,4.557h-1.114v6.38Zm2.633-8.608h1.013c1.722,0,2.228-.506,2.228-2.43s-.506-2.43-2.228-2.43h-1.013Z" transform="translate(-255.208 -49.896)"/>
      <path id="Path_23254" data-name="Path 23254" class="cls-1" d="M280.9,65.647V54.1h2.329v1.317h0a3.1,3.1,0,0,1,2.734-1.519h.506v2.532a5.488,5.488,0,0,0-1.519-.2,1.513,1.513,0,0,0-1.62,1.519v7.9Z" transform="translate(-255.076 -49.849)"/>
      <path id="Path_23255" data-name="Path 23255" class="cls-1" d="M287.9,58.153c0-2.532,1.013-4.253,3.747-4.253s3.747,1.722,3.747,4.253V61.5c0,2.532-1.013,4.253-3.747,4.253S287.9,64.027,287.9,61.5Zm5.063-.405c0-1.317-.506-1.924-1.317-1.924s-1.316.506-1.316,1.924V62c0,1.317.506,1.924,1.316,1.924s1.317-.608,1.317-1.924Z" transform="translate(-254.987 -49.849)"/>
      <path id="Path_23256" data-name="Path 23256" class="cls-1" d="M305.41,55.823h-.405a1.523,1.523,0,0,0-1.114.405,6.233,6.233,0,0,1,.3,1.823c0,3.544-1.215,4.658-3.646,4.658h-.81c-.3.1-.506.3-.506.506,0,1.519,6.177-.709,6.177,3.342,0,1.924-1.823,2.734-4.962,2.734-2.43,0-3.848-.608-3.848-1.823a1.946,1.946,0,0,1,1.519-1.823h0c-.608-.3-1.114-.709-1.114-1.418a2.4,2.4,0,0,1,1.418-1.823c-1.215-.81-1.519-1.418-1.519-4.152,0-3.139,1.013-4.253,3.747-4.253a3.41,3.41,0,0,1,2.633,1.215C303.892,54.3,304.3,54,305.208,54v1.823Zm-2.127,10.836c0-.608-.405-.81-2.025-.81s-2.025.3-2.025.81c0,.608.405.81,2.025.81C302.777,67.57,303.284,67.266,303.284,66.659Zm-1.62-8.405c0-1.924-.3-2.43-1.215-2.43-.81,0-1.215.506-1.215,2.43s.405,2.43,1.215,2.43C301.461,60.684,301.664,60.177,301.664,58.253Z" transform="translate(-254.877 -49.848)"/>
      <path id="Path_23257" data-name="Path 23257" class="cls-1" d="M306.8,65.647V54.1h2.329v1.317h0a3.1,3.1,0,0,1,2.734-1.519h.506v2.532a5.488,5.488,0,0,0-1.519-.2,1.513,1.513,0,0,0-1.62,1.519v7.9Z" transform="translate(-254.747 -49.849)"/>
      <path id="Path_23258" data-name="Path 23258" class="cls-1" d="M313.6,57.446a3.561,3.561,0,0,1,3.848-3.646c2.228,0,3.544,1.013,3.544,3.139v7.393c0,.405.1.81.1,1.215h-2.329c0-.3-.1-.608-.1-.911a4.158,4.158,0,0,1-2.836,1.114,2.344,2.344,0,0,1-2.431-2.633c0-2.532,1.722-3.95,5.165-5.266v-.709q0-1.519-1.215-1.519c-1.114,0-1.316.608-1.418,1.62H313.6Zm4.962,2.329c-2.228,1.215-2.734,2.025-2.734,3.038,0,.709.405,1.013,1.114,1.013a2.04,2.04,0,0,0,1.62-1.114Z" transform="translate(-254.663 -49.85)"/>
      <path id="Path_23259" data-name="Path 23259" class="cls-1" d="M328.06,65.649V56.737a.742.742,0,0,0-.81-.81,2.606,2.606,0,0,0-1.519.709v9.013H323.3V54.1h2.228v1.114c1.013-.81,1.519-1.418,2.633-1.418a1.994,1.994,0,0,1,2.127,1.418c1.114-1.114,1.823-1.418,2.633-1.418,1.519,0,2.228.911,2.228,2.43v9.317h-2.43V56.636a.742.742,0,0,0-.81-.81,2.606,2.606,0,0,0-1.519.709v9.013H328.06Z" transform="translate(-254.538 -49.85)"/>
      <path id="Path_23260" data-name="Path 23260" class="cls-1" d="M341.9,58.153c0-2.532,1.013-4.253,3.747-4.253s3.747,1.722,3.747,4.253V61.5c0,2.532-1.013,4.253-3.747,4.253S341.9,64.027,341.9,61.5Zm5.064-.405c0-1.317-.506-1.924-1.316-1.924s-1.317.506-1.317,1.924V62c0,1.317.506,1.924,1.317,1.924s1.316-.608,1.316-1.924Z" transform="translate(-254.301 -49.849)"/>
      <path id="Path_23261" data-name="Path 23261" class="cls-1" d="M351.918,56.076H350.5V54.152h1.418V52.734A2.43,2.43,0,0,1,354.551,50h1.215v1.924h-.709c-.608,0-.81.2-.81.81v1.418h1.418v1.924h-1.418V65.6h-2.43V56.076Z" transform="translate(-254.192 -49.899)"/>
      <path id="Path_23262" data-name="Path 23262" class="cls-1" d="M363.732,52.529H361.2V50.2H369v2.329h-2.532V65.694h-2.633V52.529Z" transform="translate(-254.056 -49.896)"/>
      <path id="Path_23263" data-name="Path 23263" class="cls-1" d="M375.27,53.951c-.1-1.317-.81-1.722-1.418-1.722a1.338,1.338,0,0,0-1.316,1.519c0,2.633,5.367,3.95,5.367,8.1,0,2.532-1.722,3.95-4.253,3.95-2.43,0-3.848-1.924-3.95-4.253l2.532-.405c.1,1.519.709,2.329,1.62,2.329a1.359,1.359,0,0,0,1.519-1.418c0-3.038-5.367-3.848-5.367-8.3,0-2.43,1.519-3.848,4.152-3.848,2.127,0,3.443,1.519,3.646,3.747Z" transform="translate(-253.948 -49.9)"/>
      <path id="Path_23264" data-name="Path 23264" class="cls-1" d="M379.8,65.694V50.2h7.089v2.329h-4.456v3.95h3.443v2.329h-3.443v4.557h4.76v2.329Z" transform="translate(-253.82 -49.896)"/>
      <path id="Path_23265" data-name="Path 23265" class="cls-1" d="M390.832,52.529H388.3V50.2h7.8v2.329h-2.532V65.694h-2.633V52.529Z" transform="translate(-253.712 -49.896)"/>
    </g>
  </g>
</svg>
