<svg xmlns="http://www.w3.org/2000/svg" viewBox="5928 626.096 36.898 24.613">
  <defs>
    <style>
      .about-svg {
        fill: #746f71;
      }
    </style>
  </defs>
  <path id="Path_12658" data-name="Path 12658" class="about-svg" d="M32.584,0H4.314A4.34,4.34,0,0,0,0,4.314V20.3a4.314,4.314,0,0,0,4.314,4.314h28.68a4.321,4.321,0,0,0,3.9-4.273V4.314A4.34,4.34,0,0,0,32.584,0ZM8.875,5.794A3.534,3.534,0,1,1,5.342,9.327,3.533,3.533,0,0,1,8.875,5.794ZM14.012,18.2H3.821c-.822,0-1.027-.493-.452-1.109l1.89-2.137a3.71,3.71,0,0,1,2.465-1.109h2.383a3.71,3.71,0,0,1,2.465,1.109l1.89,2.137C15,17.71,14.792,18.2,14.012,18.2Zm18.737.452H18.531a1.274,1.274,0,1,1,0-2.548H32.748a1.28,1.28,0,0,1,1.274,1.274A1.308,1.308,0,0,1,32.748,18.655Zm0-4.972H18.531a1.274,1.274,0,1,1,0-2.548H32.748a1.274,1.274,0,0,1,0,2.548Zm0-5.1H18.531a1.274,1.274,0,0,1,0-2.548H32.748a1.274,1.274,0,0,1,0,2.548Z" transform="translate(5928 626.096)"/>
</svg>
