<svg xmlns="http://www.w3.org/2000/svg" viewBox="-13561 1964.501 22.626 22.72">
  <defs>
    <style>
      .cls-1 {
        fill: #ee3124;
      }
    </style>
  </defs>
  <g id="Group_10486" data-name="Group 10486" transform="translate(-14978 -796)">
    <path id="Path_22886" data-name="Path 22886" class="cls-1" d="M20.74,17.441a.471.471,0,0,1-.943,0V4.9a2.123,2.123,0,0,0-1.508-1.98H5.656V1.885H20.74ZM13.2,19.8H10.37a.943.943,0,1,1,0-1.885H13.2a.943.943,0,1,1,0,1.885ZM3.771,11.313A4.668,4.668,0,0,1,8.485,6.6a4.714,4.714,0,1,1,0,9.427,4.668,4.668,0,0,1-4.714-4.714ZM6.6,19.8H3.771a.943.943,0,0,1,0-1.885H6.6a.943.943,0,0,1,0,1.885ZM21.683,0H4.714a.891.891,0,0,0-.943.943V2.828H1.7A1.69,1.69,0,0,0,0,4.525v16.5a1.69,1.69,0,0,0,1.7,1.7H15.461a1.534,1.534,0,0,0,1.6-1.6V5.656a1,1,0,0,1,.848-.943V17.441a2.357,2.357,0,1,0,4.714,0V.943A.891.891,0,0,0,21.683,0Z" transform="translate(1417 2760.501)"/>
    <path id="Path_22887" data-name="Path 22887" class="cls-1" d="M8.828,9a2.828,2.828,0,0,0,0,5.656A2.828,2.828,0,0,0,8.828,9" transform="translate(1416.656 2759.985)"/>
  </g>
</svg>
